<?xml version="1.0" standalone="no"?>
<!DOCTYPE svg PUBLIC "-//W3C//DTD SVG 20010904//EN"
 "http://www.w3.org/TR/2001/REC-SVG-20010904/DTD/svg10.dtd">
<svg version="1.0" xmlns="http://www.w3.org/2000/svg"
 width="532.000000pt" height="532.000000pt" viewBox="0 0 532.000000 532.000000"
 preserveAspectRatio="xMidYMid meet">
<metadata>
Created by potrace 1.14, written by Peter Selinger 2001-2017
</metadata>
<g transform="translate(0.000000,532.000000) scale(0.100000,-0.100000)"
fill="#000000" stroke="none">
<path d="M2448 5215 c-2 -2 -32 -6 -68 -9 -36 -3 -74 -8 -85 -10 -11 -2 -42
-7 -70 -10 -27 -4 -93 -16 -145 -27 -933 -198 -1695 -881 -1969 -1766 -18 -56
-34 -110 -36 -120 -2 -10 -8 -38 -14 -63 -5 -25 -12 -56 -14 -70 -3 -14 -8
-36 -11 -50 -6 -25 -9 -43 -23 -170 -16 -133 -9 -489 12 -620 21 -126 30 -169
60 -283 150 -554 471 -1022 949 -1383 341 -257 793 -445 1201 -500 22 -3 46
-7 54 -10 76 -25 664 -24 761 1 8 2 33 7 55 10 34 5 173 34 239 50 295 72 641
232 901 417 123 88 355 298 450 408 197 228 359 496 460 761 34 87 73 213 81
256 2 12 9 34 14 48 5 14 8 25 5 25 -2 0 1 15 6 33 5 17 12 43 14 57 2 14 6
36 9 50 40 210 43 581 7 805 -25 148 -90 399 -128 485 -8 19 -19 44 -23 55
-99 251 -276 538 -455 734 -116 128 -262 263 -405 374 -133 103 -415 260 -595
329 -49 19 -99 39 -110 43 -11 4 -24 9 -30 11 -5 1 -48 14 -95 29 -87 27 -218
59 -280 69 -19 3 -44 7 -55 10 -11 2 -47 7 -80 11 -33 4 -76 10 -95 12 -41 5
-487 12 -492 8z"/>
</g>
</svg>
